<svg width="371" height="170" viewBox="0 0 371 170" fill="none" xmlns="http://www.w3.org/2000/svg">
<line x1="112.715" y1="105.75" x2="17.7154" y2="104.75" stroke="#C7A35B" stroke-width="1.5"/>
<line x1="361" y1="106.75" x2="274" y2="106.75" stroke="#C7A35B" stroke-width="1.5"/>
<line x1="87.2942" y1="23.4863" x2="18.2942" y2="104.486" stroke="#C7A35B" stroke-width="1.5"/>
<line x1="333.598" y1="28.4525" x2="274.598" y2="106.452" stroke="#C7A35B" stroke-width="1.5"/>
<line x1="84.9733" y1="145.994" x2="85.9816" y2="23.9939" stroke="#C7A35B" stroke-width="1.5"/>
<line x1="332.973" y1="146.998" x2="333.257" y2="27.9982" stroke="#C7A35B" stroke-width="1.5"/>
<path d="M196.723 28.75C224.925 28.75 247.973 55.3904 247.973 88.5C247.973 121.61 224.925 148.25 196.723 148.25C168.521 148.25 145.473 121.61 145.473 88.5C145.473 55.3904 168.521 28.75 196.723 28.75Z" stroke="#C7A35B" stroke-width="1.5"/>
<path d="M199.138 137L199.694 147.144L206.277 148L199.694 148.856L199.138 159L198.583 148.856L192 148L198.583 147.144L199.138 137Z" fill="#C7A35B"/>
<g filter="url(#filter0_f_402_5591)">
<path d="M199.138 137L201.208 144.811L206.277 148L201.208 151.189L199.138 159L197.069 151.189L192 148L197.069 144.811L199.138 137Z" fill="#C7A35B"/>
</g>
<path d="M170.863 138.407C170.974 137.49 172.303 137.49 172.414 138.407V138.407C172.455 138.748 172.715 139.022 173.054 139.082L173.151 139.099C174.16 139.276 174.16 140.724 173.151 140.901L173.054 140.918C172.715 140.978 172.455 141.252 172.414 141.593V141.593C172.303 142.51 170.974 142.51 170.863 141.593V141.593C170.822 141.252 170.562 140.978 170.223 140.918L170.125 140.901C169.117 140.724 169.117 139.276 170.125 139.099L170.223 139.082C170.562 139.022 170.822 138.748 170.863 138.407V138.407Z" fill="#C7A35B"/>
<g filter="url(#filter1_f_402_5591)">
<path d="M170.985 138.639C171.063 137.849 172.214 137.849 172.292 138.639V138.639C172.322 138.94 172.553 139.182 172.853 139.224L172.941 139.237C173.823 139.363 173.823 140.637 172.941 140.763L172.853 140.776C172.553 140.818 172.322 141.06 172.292 141.361V141.361C172.214 142.151 171.063 142.151 170.985 141.361V141.361C170.955 141.06 170.724 140.818 170.424 140.776L170.336 140.763C169.453 140.637 169.453 139.363 170.336 139.237L170.424 139.224C170.724 139.182 170.955 138.94 170.985 138.639V138.639Z" fill="#C7A35B"/>
</g>
<path d="M85.132 103.675C85.206 102.965 86.2405 102.965 86.3145 103.675V103.675C86.3414 103.934 86.5326 104.144 86.7868 104.196L86.928 104.225C87.7716 104.397 87.7716 105.603 86.928 105.775L86.7868 105.804C86.5326 105.856 86.3414 106.066 86.3145 106.325V106.325C86.2405 107.035 85.206 107.035 85.132 106.325V106.325C85.1052 106.066 84.914 105.856 84.6597 105.804L84.5185 105.775C83.675 105.603 83.675 104.397 84.5185 104.225L84.6597 104.196C84.914 104.144 85.1052 103.934 85.132 103.675V103.675Z" fill="#C7A35B"/>
<g filter="url(#filter2_f_402_5591)">
<path d="M85.2257 103.871C85.2774 103.261 86.1692 103.261 86.2208 103.871V103.871C86.2401 104.098 86.4113 104.284 86.6365 104.321L86.7648 104.342C87.5079 104.466 87.5079 105.534 86.7648 105.658L86.6365 105.679C86.4113 105.716 86.2401 105.902 86.2208 106.129V106.129C86.1692 106.739 85.2774 106.739 85.2257 106.129V106.129C85.2064 105.902 85.0353 105.716 84.81 105.679L84.6817 105.658C83.9386 105.534 83.9386 104.466 84.6817 104.342L84.81 104.321C85.0353 104.284 85.2064 104.098 85.2257 103.871V103.871Z" fill="#C7A35B"/>
</g>
<path d="M248.132 87.6754C248.206 86.965 249.24 86.965 249.314 87.6754V87.6754C249.341 87.9335 249.532 88.1443 249.787 88.1963L249.928 88.2251C250.771 88.3973 250.771 89.6027 249.928 89.7749L249.787 89.8037C249.532 89.8557 249.341 90.0665 249.314 90.3246V90.3246C249.24 91.035 248.206 91.035 248.132 90.3246V90.3246C248.105 90.0665 247.914 89.8557 247.66 89.8037L247.518 89.7749C246.675 89.6027 246.675 88.3973 247.518 88.2251L247.66 88.1963C247.914 88.1443 248.105 87.9335 248.132 87.6754V87.6754Z" fill="#C7A35B"/>
<g filter="url(#filter3_f_402_5591)">
<path d="M248.226 87.8707C248.277 87.2612 249.169 87.2612 249.221 87.8707V87.8707C249.24 88.0983 249.411 88.2837 249.636 88.3211L249.765 88.3425C250.508 88.4659 250.508 89.5341 249.765 89.6575L249.636 89.6789C249.411 89.7163 249.24 89.9017 249.221 90.1293V90.1293C249.169 90.7388 248.277 90.7388 248.226 90.1293V90.1293C248.206 89.9017 248.035 89.7163 247.81 89.6789L247.682 89.6575C246.939 89.5341 246.939 88.4659 247.682 88.3425L247.81 88.3211C248.035 88.2837 248.206 88.0983 248.226 87.8707V87.8707Z" fill="#C7A35B"/>
</g>
<path d="M116.081 95.5526L113.81 104.356C113.597 105.183 114.072 106.032 114.889 106.281L123.157 108.801L114.784 106.657C113.957 106.446 113.109 106.923 112.862 107.74L110.227 116.442L112.498 107.639C112.712 106.812 112.236 105.963 111.419 105.714L103.151 103.194L111.524 105.338C112.352 105.549 113.199 105.072 113.447 104.255L116.081 95.5526Z" fill="#C7A35B"/>
<g filter="url(#filter4_f_402_5591)">
<path d="M116.049 94.8031L114.494 104.437L123.126 108.051L113.873 106.653L110.196 115.693L111.751 106.059L103.119 102.445L112.372 103.843L116.049 94.8031Z" fill="#C7A35B"/>
</g>
<path d="M9.59722 92.2775L17.1465 102.162C17.6644 102.84 18.6241 102.991 19.3247 102.504L26.907 97.2333L19.633 102.922C18.9609 103.447 18.8214 104.409 19.3163 105.104L26.5314 115.235L18.9821 105.35C18.4643 104.672 17.5045 104.521 16.8039 105.008L9.22161 110.279L16.4956 104.591C17.1677 104.065 17.3073 103.104 16.8123 102.409L9.59722 92.2775Z" fill="#C7A35B"/>
<g filter="url(#filter5_f_402_5591)">
<path d="M8.8427 91.6686L17.3496 101.238L26.1525 96.6244L19.1458 103.673L25.7769 114.626L17.27 105.057L8.4671 109.67L15.4738 102.622L8.8427 91.6686Z" fill="#C7A35B"/>
</g>
<path d="M95.9632 141.865L85.8883 145.532C85.0864 145.823 84.6561 146.695 84.912 147.509L87.3695 155.328L84.489 147.655C84.189 146.856 83.3134 146.434 82.5019 146.698L72.3068 150.016L82.3818 146.35C83.1837 146.058 83.6139 145.187 83.358 144.372L80.9006 136.554L83.7811 144.227C84.081 145.026 84.9567 145.447 85.7682 145.183L95.9632 141.865Z" fill="#C7A35B"/>
<g filter="url(#filter6_f_402_5591)">
<path d="M96.6686 141.387L86.438 146.026L88.0748 154.85L83.9288 146.891L73.0121 149.538L83.2427 144.899L81.6059 136.076L85.7519 144.035L96.6686 141.387Z" fill="#C7A35B"/>
</g>
<path d="M251.355 79.3925L249.205 87.7282C248.991 88.5552 249.467 89.4035 250.284 89.6525L258.115 92.0391L250.185 90.009C249.357 89.7972 248.51 90.2747 248.262 91.0921L245.768 99.3313L247.918 90.9957C248.131 90.1686 247.655 89.3203 246.838 89.0713L239.007 86.6848L246.938 88.7149C247.766 88.9267 248.613 88.4492 248.861 87.6317L251.355 79.3925Z" fill="#C7A35B"/>
<g filter="url(#filter7_f_402_5591)">
<path d="M251.325 78.6772L249.841 87.8731L258.085 91.3238L249.248 89.988L245.737 98.616L247.221 89.4201L238.977 85.9694L247.814 87.3052L251.325 78.6772Z" fill="#C7A35B"/>
</g>
<path d="M277.543 93.1392L274.447 104.76C274.228 105.582 274.692 106.431 275.502 106.69L281.708 108.676L275.374 107.148C274.547 106.949 273.709 107.433 273.469 108.249L270.076 119.787L273.172 108.166C273.391 107.344 272.927 106.495 272.117 106.236L265.911 104.249L272.245 105.777C273.072 105.977 273.91 105.493 274.15 104.677L277.543 93.1392Z" fill="#C7A35B"/>
<g filter="url(#filter8_f_402_5591)">
<path d="M277.612 92.2134L275.112 104.359L281.777 107.751L274.32 107.185L270.145 118.861L272.644 106.716L265.979 103.324L273.436 103.889L277.612 92.2134Z" fill="#C7A35B"/>
</g>
<path d="M331.62 18.3259L333.469 26.8339C333.65 27.668 334.456 28.2116 335.297 28.0675L341.96 26.926L335.367 28.4223C334.535 28.6112 333.999 29.4219 334.151 30.2618L335.7 38.8293L333.851 30.3214C333.67 29.4873 332.864 28.9437 332.023 29.0878L325.36 30.2292L331.952 28.733C332.785 28.5441 333.321 27.7334 333.169 26.8935L331.62 18.3259Z" fill="#C7A35B"/>
<g filter="url(#filter9_f_402_5591)">
<path d="M331.3 17.6887L334.004 26.6779L341.64 26.2888L334.437 28.8526L335.38 38.1921L332.676 29.203L325.04 29.592L332.243 27.0283L331.3 17.6887Z" fill="#C7A35B"/>
</g>
<path d="M330.947 137.215L332.757 145.577C332.937 146.411 333.742 146.955 334.583 146.812L340.749 145.764L334.652 147.157C333.82 147.347 333.285 148.157 333.438 148.997L334.967 157.415L333.157 149.053C332.976 148.219 332.172 147.675 331.331 147.817L325.165 148.865L331.262 147.473C332.094 147.283 332.629 146.472 332.476 145.633L330.947 137.215Z" fill="#C7A35B"/>
<g filter="url(#filter10_f_402_5591)">
<path d="M330.641 136.585L333.264 145.45L340.443 145.135L333.69 147.592L334.66 156.786L332.037 147.921L324.858 148.236L331.611 145.779L330.641 136.585Z" fill="#C7A35B"/>
</g>
<path d="M361.388 99.5966L360.634 105.55L363.729 106.598L360.462 106.546L359.172 112.406L359.925 106.453L356.831 105.405L360.098 105.457L361.388 99.5966Z" fill="#C7A35B"/>
<g filter="url(#filter11_f_402_5591)">
<path d="M361.388 99.5966L361.601 104.318L363.729 106.598L360.958 108.031L359.172 112.406L358.959 107.685L356.831 105.405L359.601 103.972L361.388 99.5966Z" fill="#C7A35B"/>
</g>
<path d="M338.41 101.482L334.451 105.872L336.268 108.547L333.604 106.714L329.191 110.648L333.15 106.258L331.333 103.583L333.997 105.416L338.41 101.482Z" fill="#C7A35B"/>
<g filter="url(#filter12_f_402_5591)">
<path d="M338.41 101.482L335.852 105.456L336.268 108.547L333.179 108.113L329.191 110.648L331.749 106.674L331.333 103.583L334.421 104.017L338.41 101.482Z" fill="#C7A35B"/>
</g>
<path d="M152 48L152.544 57.7885L159 58.6141L152.544 59.4397L152 69.2282L151.456 59.4397L145 58.6141L151.456 57.7885L152 48Z" fill="#C7A35B"/>
<g filter="url(#filter13_f_402_5591)">
<path d="M152 48L154.029 55.5369L159 58.6141L154.029 61.6913L152 69.2282L149.971 61.6913L145 58.6141L149.971 55.5369L152 48Z" fill="#C7A35B"/>
</g>
<path d="M86.6384 11L87.4658 22.9888L97.2767 24L87.4658 25.0112L86.6384 37L85.8109 25.0112L76 24L85.8109 22.9888L86.6384 11Z" fill="#C7A35B"/>
<g filter="url(#filter14_f_402_5591)">
<path d="M86.6384 11L89.7226 20.2311L97.2767 24L89.7226 27.7689L86.6384 37L83.5542 27.7689L76 24L83.5542 20.2311L86.6384 11Z" fill="#C7A35B"/>
</g>
<defs>
<filter id="filter0_f_402_5591" x="181.1" y="126.1" width="36.0769" height="43.8" filterUnits="userSpaceOnUse" color-interpolation-filters="sRGB">
<feFlood flood-opacity="0" result="BackgroundImageFix"/>
<feBlend mode="normal" in="SourceGraphic" in2="BackgroundImageFix" result="shape"/>
<feGaussianBlur stdDeviation="5.45" result="effect1_foregroundBlur_402_5591"/>
</filter>
<filter id="filter1_f_402_5591" x="158.774" y="127.146" width="25.7287" height="25.7072" filterUnits="userSpaceOnUse" color-interpolation-filters="sRGB">
<feFlood flood-opacity="0" result="BackgroundImageFix"/>
<feBlend mode="normal" in="SourceGraphic" in2="BackgroundImageFix" result="shape"/>
<feGaussianBlur stdDeviation="5.45" result="effect1_foregroundBlur_402_5591"/>
</filter>
<filter id="filter2_f_402_5591" x="73.2244" y="92.5136" width="24.9978" height="24.9729" filterUnits="userSpaceOnUse" color-interpolation-filters="sRGB">
<feFlood flood-opacity="0" result="BackgroundImageFix"/>
<feBlend mode="normal" in="SourceGraphic" in2="BackgroundImageFix" result="shape"/>
<feGaussianBlur stdDeviation="5.45" result="effect1_foregroundBlur_402_5591"/>
</filter>
<filter id="filter3_f_402_5591" x="236.224" y="76.5136" width="24.9978" height="24.9729" filterUnits="userSpaceOnUse" color-interpolation-filters="sRGB">
<feFlood flood-opacity="0" result="BackgroundImageFix"/>
<feBlend mode="normal" in="SourceGraphic" in2="BackgroundImageFix" result="shape"/>
<feGaussianBlur stdDeviation="5.45" result="effect1_foregroundBlur_402_5591"/>
</filter>
<filter id="filter4_f_402_5591" x="99.1193" y="90.8032" width="28.0066" height="28.8896" filterUnits="userSpaceOnUse" color-interpolation-filters="sRGB">
<feFlood flood-opacity="0" result="BackgroundImageFix"/>
<feBlend mode="normal" in="SourceGraphic" in2="BackgroundImageFix" result="shape"/>
<feGaussianBlur stdDeviation="2" result="effect1_foregroundBlur_402_5591"/>
</filter>
<filter id="filter5_f_402_5591" x="4.46704" y="87.6685" width="25.6854" height="30.957" filterUnits="userSpaceOnUse" color-interpolation-filters="sRGB">
<feFlood flood-opacity="0" result="BackgroundImageFix"/>
<feBlend mode="normal" in="SourceGraphic" in2="BackgroundImageFix" result="shape"/>
<feGaussianBlur stdDeviation="2" result="effect1_foregroundBlur_402_5591"/>
</filter>
<filter id="filter6_f_402_5591" x="69.0122" y="132.076" width="31.6564" height="26.7739" filterUnits="userSpaceOnUse" color-interpolation-filters="sRGB">
<feFlood flood-opacity="0" result="BackgroundImageFix"/>
<feBlend mode="normal" in="SourceGraphic" in2="BackgroundImageFix" result="shape"/>
<feGaussianBlur stdDeviation="2" result="effect1_foregroundBlur_402_5591"/>
</filter>
<filter id="filter7_f_402_5591" x="234.977" y="74.6772" width="27.1079" height="27.939" filterUnits="userSpaceOnUse" color-interpolation-filters="sRGB">
<feFlood flood-opacity="0" result="BackgroundImageFix"/>
<feBlend mode="normal" in="SourceGraphic" in2="BackgroundImageFix" result="shape"/>
<feGaussianBlur stdDeviation="2" result="effect1_foregroundBlur_402_5591"/>
</filter>
<filter id="filter8_f_402_5591" x="261.979" y="88.2134" width="23.7981" height="34.6475" filterUnits="userSpaceOnUse" color-interpolation-filters="sRGB">
<feFlood flood-opacity="0" result="BackgroundImageFix"/>
<feBlend mode="normal" in="SourceGraphic" in2="BackgroundImageFix" result="shape"/>
<feGaussianBlur stdDeviation="2" result="effect1_foregroundBlur_402_5591"/>
</filter>
<filter id="filter9_f_402_5591" x="321.04" y="13.689" width="24.6001" height="28.5029" filterUnits="userSpaceOnUse" color-interpolation-filters="sRGB">
<feFlood flood-opacity="0" result="BackgroundImageFix"/>
<feBlend mode="normal" in="SourceGraphic" in2="BackgroundImageFix" result="shape"/>
<feGaussianBlur stdDeviation="2" result="effect1_foregroundBlur_402_5591"/>
</filter>
<filter id="filter10_f_402_5591" x="320.858" y="132.585" width="23.585" height="28.2007" filterUnits="userSpaceOnUse" color-interpolation-filters="sRGB">
<feFlood flood-opacity="0" result="BackgroundImageFix"/>
<feBlend mode="normal" in="SourceGraphic" in2="BackgroundImageFix" result="shape"/>
<feGaussianBlur stdDeviation="2" result="effect1_foregroundBlur_402_5591"/>
</filter>
<filter id="filter11_f_402_5591" x="349.831" y="92.5967" width="20.8975" height="26.8096" filterUnits="userSpaceOnUse" color-interpolation-filters="sRGB">
<feFlood flood-opacity="0" result="BackgroundImageFix"/>
<feBlend mode="normal" in="SourceGraphic" in2="BackgroundImageFix" result="shape"/>
<feGaussianBlur stdDeviation="3.5" result="effect1_foregroundBlur_402_5591"/>
</filter>
<filter id="filter12_f_402_5591" x="322.191" y="94.4819" width="23.2188" height="23.166" filterUnits="userSpaceOnUse" color-interpolation-filters="sRGB">
<feFlood flood-opacity="0" result="BackgroundImageFix"/>
<feBlend mode="normal" in="SourceGraphic" in2="BackgroundImageFix" result="shape"/>
<feGaussianBlur stdDeviation="3.5" result="effect1_foregroundBlur_402_5591"/>
</filter>
<filter id="filter13_f_402_5591" x="134.1" y="37.1" width="35.8" height="43.028" filterUnits="userSpaceOnUse" color-interpolation-filters="sRGB">
<feFlood flood-opacity="0" result="BackgroundImageFix"/>
<feBlend mode="normal" in="SourceGraphic" in2="BackgroundImageFix" result="shape"/>
<feGaussianBlur stdDeviation="5.45" result="effect1_foregroundBlur_402_5591"/>
</filter>
<filter id="filter14_f_402_5591" x="65.1" y="0.1" width="43.0767" height="47.8" filterUnits="userSpaceOnUse" color-interpolation-filters="sRGB">
<feFlood flood-opacity="0" result="BackgroundImageFix"/>
<feBlend mode="normal" in="SourceGraphic" in2="BackgroundImageFix" result="shape"/>
<feGaussianBlur stdDeviation="5.45" result="effect1_foregroundBlur_402_5591"/>
</filter>
</defs>
</svg>
